<?xml version="1.0" standalone="no"?>
<!DOCTYPE svg PUBLIC "-//W3C//DTD SVG 20010904//EN"
 "http://www.w3.org/TR/2001/REC-SVG-20010904/DTD/svg10.dtd">
<svg version="1.0" xmlns="http://www.w3.org/2000/svg"
 width="134.000000pt" height="122.000000pt" viewBox="0 0 134.000000 122.000000"
 preserveAspectRatio="xMidYMid meet">
<metadata>
Created by potrace 1.10, written by Peter Selinger 2001-2011
</metadata>
<g transform="translate(0.000000,122.000000) scale(0.100000,-0.100000)"
fill="#000000" stroke="none">
<path d="M600 1113 c-51 -8 -147 -47 -197 -80 -88 -58 -150 -138 -193 -248
-34 -86 -34 -244 0 -330 57 -149 156 -247 305 -305 49 -19 79 -24 165 -24 86
0 116 5 165 24 149 58 248 156 305 305 19 49 24 79 24 165 0 119 -19 183 -81
278 -103 155 -308 245 -493 215z m211 -39 c201 -59 339 -241 339 -449 0 -170
-75 -310 -215 -403 -133 -88 -340 -95 -485 -16 -226 123 -308 422 -179 651 34
59 132 154 190 183 96 49 248 64 350 34z"/>
<path d="M553 754 c-20 -31 -11 -52 33 -73 16 -8 32 -19 36 -25 4 -6 8 -50 8
-98 0 -78 2 -88 22 -102 29 -20 41 -20 68 2 20 16 22 28 24 112 1 51 6 95 11
97 41 14 60 31 63 56 6 51 -9 57 -134 57 -111 0 -114 -1 -131 -26z m247 -24
c0 -28 -2 -30 -40 -30 l-40 0 0 -115 0 -115 -35 0 -35 0 0 114 0 115 -42 3
c-39 3 -43 6 -46 31 l-3 27 120 0 121 0 0 -30z"/>
</g>
</svg>
